<svg width="72" height="52" viewBox="0 0 72 52" fill="none" xmlns="http://www.w3.org/2000/svg">
<g clip-path="url(#clip0_268_277)">
<path d="M50.928 18.1297C51.926 17.3977 53.1314 17.003 54.3691 17.003C55.6068 17.003 56.8122 17.3977 57.8102 18.1297L59.825 19.606C60.1571 19.8513 60.5414 20.0098 60.9496 20.0727L63.4202 20.4527C64.6428 20.6408 65.7737 21.2137 66.6486 22.0882C67.5235 22.9627 68.0969 24.0933 68.2856 25.3158L68.6655 27.7865C68.7285 28.1925 68.8869 28.5789 69.1323 28.9111L70.6086 30.9258C71.3406 31.9239 71.7352 33.1293 71.7352 34.367C71.7352 35.6046 71.3406 36.8101 70.6086 37.8081L69.1323 39.8228C68.89 40.1555 68.7301 40.5409 68.6655 40.9474L68.2856 43.4181C68.0973 44.641 67.5241 45.7721 66.6491 46.647C65.7742 47.5219 64.6432 48.0951 63.4202 48.2834L60.9496 48.6633C60.5431 48.7279 60.1577 48.8879 59.825 49.1301L57.8102 50.6064C56.8122 51.3384 55.6068 51.7331 54.3691 51.7331C53.1314 51.7331 51.926 51.3384 50.928 50.6064L48.9133 49.1301C48.5805 48.8879 48.1951 48.7279 47.7887 48.6633L45.3158 48.2856C44.0936 48.097 42.9633 47.5239 42.0888 46.6494C41.2143 45.775 40.6412 44.6446 40.4527 43.4224L40.0727 40.9518C40.0082 40.5453 39.8482 40.1599 39.606 39.8272L38.1296 37.8124C37.3977 36.8144 37.003 35.609 37.003 34.3713C37.003 33.1336 37.3977 31.9282 38.1296 30.9302L39.606 28.9154C39.8482 28.5827 40.0082 28.1973 40.0727 27.7908L40.4527 25.3158C40.6412 24.0936 41.2143 22.9633 42.0888 22.0888C42.9633 21.2144 44.0936 20.6413 45.3158 20.4527L47.7865 20.0727C48.1925 20.0098 48.5789 19.8513 48.9111 19.606L50.928 18.1297ZM55.8823 20.7545C55.4433 20.433 54.9133 20.2598 54.3691 20.2598C53.825 20.2598 53.295 20.433 52.8559 20.7545L50.8412 22.2308C50.0844 22.7845 49.2059 23.1485 48.2793 23.2924L45.813 23.6702C45.2743 23.753 44.7761 24.0054 44.3908 24.3908C44.0054 24.7761 43.753 25.2744 43.6702 25.813L43.2924 28.2815C43.1485 29.2081 42.7844 30.0866 42.2308 30.8433L40.7544 32.8559C40.0923 33.7569 40.0923 34.9835 40.7544 35.8824L42.2308 37.8971C42.7865 38.6526 43.1491 39.5297 43.2924 40.4589L43.6702 42.9252C43.8395 44.0325 44.7079 44.8987 45.813 45.0681L48.2815 45.4458C49.2085 45.5891 50.0856 45.9517 50.8433 46.5075L52.8559 47.9838C53.7569 48.646 54.9835 48.646 55.8823 47.9838L57.8971 46.5075C58.6538 45.9538 59.5323 45.5897 60.4589 45.4458L62.9252 45.0681C64.0325 44.8987 64.8987 44.0303 65.0681 42.9252L65.4458 40.4568C65.5891 39.5297 65.9517 38.6526 66.5075 37.8949L67.9838 35.8824C68.646 34.9814 68.646 33.7547 67.9838 32.8559L66.5075 30.8412C65.9538 30.0844 65.5897 29.2059 65.4458 28.2793L65.0681 25.813C64.9853 25.2744 64.7328 24.7761 64.3475 24.3908C63.9621 24.0054 63.4639 23.753 62.9252 23.6702L60.4567 23.2924C59.5302 23.1485 58.6516 22.7845 57.8949 22.2308L55.8823 20.7545ZM52.0244 30.2116C51.8295 30.5945 51.4933 30.8848 51.0853 31.0194C50.6772 31.1539 50.2325 31.1217 49.8481 30.9298C49.4637 30.7378 49.1707 30.4018 49.033 29.9948C48.8953 29.5878 48.9241 29.1428 49.113 28.757C49.4799 28.021 50.0596 27.2351 50.9562 26.6358C51.8637 26.0323 52.9992 25.6849 54.3691 25.6849C55.6457 25.6763 56.8916 26.0757 57.9253 26.8247C59.0152 27.6432 59.7967 28.9198 59.7967 30.5698C59.7967 31.5424 59.5471 32.3718 59.0825 33.0665C58.6374 33.733 58.0621 34.1802 57.5801 34.5037C57.3435 34.6601 57.1025 34.8033 56.9006 34.9271L56.8875 34.9358C56.6965 35.0468 56.5082 35.1626 56.3231 35.2831C56.0921 35.4217 55.8889 35.6021 55.7239 35.8151C55.4821 36.1692 55.1105 36.4136 54.6896 36.4954C54.2687 36.5772 53.8326 36.4896 53.4758 36.2518C53.1191 36.014 52.8705 35.6451 52.7842 35.2251C52.6978 34.8052 52.7805 34.3681 53.0144 34.0087C53.4139 33.4356 53.9262 32.9471 54.5167 32.5737C54.7534 32.4152 54.9944 32.2719 55.1963 32.1503L55.2115 32.1416C55.4286 32.0092 55.6066 31.9028 55.7716 31.7921C56.0034 31.6537 56.2073 31.4733 56.373 31.2602C56.4533 31.1429 56.5402 30.9541 56.5402 30.5698C56.5488 30.3473 56.5012 30.1262 56.4018 29.927C56.3024 29.7278 56.1543 29.5568 55.9714 29.43C55.5009 29.1049 54.9409 28.9342 54.3691 28.9415C53.568 28.9415 53.0773 29.1369 52.7625 29.3475C52.4441 29.5649 52.1893 29.8631 52.0244 30.2116ZM56.5402 40.8823C56.5402 41.4581 56.3114 42.0103 55.9043 42.4175C55.4971 42.8246 54.9449 43.0533 54.3691 43.0533C53.7933 43.0533 53.2411 42.8246 52.8339 42.4175C52.4268 42.0103 52.1981 41.4581 52.1981 40.8823C52.1981 40.3065 52.4268 39.7543 52.8339 39.3471C53.2411 38.94 53.7933 38.7112 54.3691 38.7112C54.9449 38.7112 55.4971 38.94 55.9043 39.3471C56.3114 39.7543 56.5402 40.3065 56.5402 40.8823Z" fill="#BA1A1A"/>
</g>
<g clip-path="url(#clip1_268_277)">
<path fill-rule="evenodd" clip-rule="evenodd" d="M5.9101 13.5088C5.9101 8.37956 10.0682 4.2215 15.1974 4.2215C20.3266 4.2215 24.4847 8.37956 24.4847 13.5088C24.4847 18.638 20.3266 22.7961 15.1974 22.7961C10.0682 22.7961 5.9101 18.638 5.9101 13.5088Z" fill="#BA1A1A"/>
<path d="M26.2141 17.837C26.1373 17.9825 26.1699 18.1641 26.3021 18.262C27.2842 18.9889 28.4995 19.4189 29.815 19.4189C33.0791 19.4189 35.7251 16.7728 35.7251 13.5088C35.7251 10.2447 33.0791 7.59868 29.815 7.59868C28.4995 7.59868 27.2842 8.0286 26.3021 8.75559C26.1699 8.85353 26.1373 9.03497 26.2141 9.18054C26.8961 10.473 27.2822 11.9458 27.2822 13.5088C27.2822 15.0717 26.8961 16.5445 26.2141 17.837Z" fill="#BA1A1A"/>
<path fill-rule="evenodd" clip-rule="evenodd" d="M5.89077 25.9017C8.25113 24.8178 11.3481 24.4846 15.1969 24.4846C19.0491 24.4846 22.1482 24.8184 24.5094 25.9047C27.0815 27.0879 28.6448 29.1032 29.4642 31.9488C29.8482 33.2825 28.9013 34.6162 27.5963 34.6162H2.8011C1.49463 34.6162 0.545708 33.2805 0.930915 31.9443C1.75138 29.0984 3.31703 27.0836 5.89077 25.9017Z" fill="#BA1A1A"/>
<path d="M26.7637 21.1858C26.0176 21.2401 25.9738 22.4139 26.6594 22.7629C28.5381 23.7195 29.9527 25.1278 30.9673 26.9252C31.7997 28.4001 33.0925 29.5504 34.6023 29.5504H37.8115C39.0861 29.5504 40.0161 28.0675 39.5677 26.6187C39.5419 26.5354 39.515 26.4526 39.4873 26.3706C38.8702 24.5459 37.8124 23.2027 36.2462 22.3465C34.7757 21.5427 32.9348 21.211 30.7661 21.1107L30.7304 21.109H30.6949C29.4175 21.109 28.0832 21.0898 26.7637 21.1858Z" fill="#BA1A1A"/>
</g>
<defs>
<clipPath id="clip0_268_277">
<rect width="34.7368" height="34.7368" fill="white" transform="translate(37 17)"/>
</clipPath>
<clipPath id="clip1_268_277">
<rect width="40.5263" height="40.5263" fill="white"/>
</clipPath>
</defs>
</svg>
